<svg width="100" height="100" viewBox="0 0 100 100" fill="none" xmlns="http://www.w3.org/2000/svg">
<rect width="100" height="100" fill="white"/>
<circle cx="50" cy="50" r="50" fill="white"/>
<path d="M18.9081 31.383V38.0213C21.4597 33.3404 24.8618 31 29.1144 31V42.1064H26.4353C23.9262 42.1064 22.0338 42.7021 20.758 43.8936C19.5247 45.0851 18.9081 47.1702 18.9081 50.1489V67H8V31.383H18.9081Z" fill="#FFAF02"/>
<path d="M44.0094 31.383V36.617C46.2633 32.8723 49.8568 31 54.7899 31C57.4265 31 59.7655 31.5957 61.8068 32.7872C63.8906 33.9787 65.5066 35.6809 66.6548 37.8936C67.9731 35.8085 69.6742 34.1489 71.758 32.9149C73.8843 31.6383 76.2445 31 78.8387 31C83.1764 31 86.621 32.3404 89.1726 35.0213C91.7242 37.7021 93 41.4255 93 46.1915V67H82.1557V47.6596C82.1557 45.3617 81.5391 43.5957 80.3058 42.3617C79.1151 41.0851 77.4565 40.4468 75.3302 40.4468C73.2039 40.4468 71.5241 41.0851 70.2908 42.3617C69.1001 43.5957 68.5047 45.3617 68.5047 47.6596V67H57.6604V47.6596C57.6604 45.3617 57.0438 43.5957 55.8105 42.3617C54.6198 41.0851 52.9612 40.4468 50.8349 40.4468C48.7086 40.4468 47.0288 41.0851 45.7955 42.3617C44.6048 43.5957 44.0094 45.3617 44.0094 47.6596V67H33.1013V31.383H44.0094Z" fill="#235EE8"/>
</svg>
