<svg width="151" height="73" viewBox="0 0 151 73" fill="none" xmlns="http://www.w3.org/2000/svg">
<path d="M14.23 16.81V19.75C15.35 17.63 16.97 16.57 19.09 16.57V20.89H18.04C16.78 20.89 15.83 21.21 15.19 21.85C14.55 22.47 14.23 23.55 14.23 25.09V33.43H10V16.81H14.23Z" fill="#FFAF02"/>
<path d="M31.1896 28.72C32.0696 27.84 32.5096 26.64 32.5096 25.12C32.5096 23.6 32.0696 22.41 31.1896 21.55C30.3096 20.67 29.2796 20.23 28.0996 20.23C26.9196 20.23 25.8896 20.66 25.0096 21.52C24.1496 22.38 23.7196 23.57 23.7196 25.09C23.7196 26.61 24.1596 27.81 25.0396 28.69C25.9196 29.57 26.9396 30.01 28.0996 30.01C29.2796 30.01 30.3096 29.58 31.1896 28.72ZM21.6496 31.27C20.1696 29.65 19.4296 27.59 19.4296 25.09C19.4296 22.59 20.1696 20.55 21.6496 18.97C23.1296 17.37 25.0096 16.57 27.2896 16.57C29.5696 16.57 31.3096 17.51 32.5096 19.39V16.81H36.7096V33.43H32.5096V30.64C31.2496 32.66 29.4996 33.67 27.2596 33.67C25.0196 33.67 23.1496 32.87 21.6496 31.27Z" fill="#FFAF02"/>
<path d="M44.3753 12.58C44.3753 13.3 44.1253 13.91 43.6253 14.41C43.1253 14.91 42.5153 15.16 41.7953 15.16C41.0953 15.16 40.4953 14.91 39.9953 14.41C39.4953 13.91 39.2453 13.3 39.2453 12.58C39.2453 11.86 39.4953 11.25 39.9953 10.75C40.4953 10.25 41.0953 10 41.7953 10C42.5153 10 43.1253 10.25 43.6253 10.75C44.1253 11.25 44.3753 11.86 44.3753 12.58ZM39.6953 33.43V16.81H43.9253V33.43H39.6953Z" fill="#FFAF02"/>
<path d="M51.1558 16.81V19.3C52.2158 17.48 53.9358 16.57 56.3158 16.57C58.2158 16.57 59.7658 17.2 60.9658 18.46C62.1658 19.7 62.7658 21.43 62.7658 23.65V33.43H58.5658V24.25C58.5658 22.95 58.2358 21.96 57.5758 21.28C56.9158 20.58 56.0158 20.23 54.8758 20.23C53.7358 20.23 52.8258 20.58 52.1458 21.28C51.4858 21.96 51.1558 22.95 51.1558 24.25V33.43H46.9258V16.81H51.1558Z" fill="#FFAF02"/>
<path d="M77.2813 28.69C78.1613 27.81 78.6013 26.61 78.6013 25.09C78.6013 23.57 78.1613 22.38 77.2813 21.52C76.4213 20.66 75.4013 20.23 74.2213 20.23C73.0413 20.23 72.0113 20.67 71.1313 21.55C70.2713 22.41 69.8413 23.6 69.8413 25.12C69.8413 26.64 70.2713 27.84 71.1313 28.72C72.0113 29.58 73.0413 30.01 74.2213 30.01C75.4013 30.01 76.4213 29.57 77.2813 28.69ZM69.8413 19.39C71.0213 17.51 72.7513 16.57 75.0313 16.57C77.3113 16.57 79.1913 17.37 80.6713 18.97C82.1513 20.55 82.8913 22.6 82.8913 25.12C82.8913 27.62 82.1513 29.67 80.6713 31.27C79.1913 32.87 77.3213 33.67 75.0613 33.67C72.8213 33.67 71.0813 32.66 69.8413 30.64V33.43H65.6113V11.23H69.8413V19.39Z" fill="#FFAF02"/>
<path d="M92.087 30.1C93.267 30.1 94.277 29.67 95.117 28.81C95.977 27.93 96.407 26.7 96.407 25.12C96.407 23.52 95.987 22.29 95.147 21.43C94.307 20.57 93.287 20.14 92.087 20.14C90.907 20.14 89.907 20.57 89.087 21.43C88.267 22.29 87.857 23.52 87.857 25.12C87.857 26.72 88.267 27.95 89.087 28.81C89.907 29.67 90.907 30.1 92.087 30.1ZM85.997 31.3C84.377 29.72 83.567 27.65 83.567 25.09C83.567 22.53 84.387 20.47 86.027 18.91C87.667 17.35 89.697 16.57 92.117 16.57C94.557 16.57 96.597 17.35 98.237 18.91C99.877 20.47 100.697 22.53 100.697 25.09C100.697 27.65 99.867 29.72 98.207 31.3C96.567 32.88 94.527 33.67 92.087 33.67C89.647 33.67 87.617 32.88 85.997 31.3Z" fill="#FFAF02"/>
<path d="M121.383 16.81H125.433L120.333 33.43H115.833L112.983 22.27L110.103 33.43H105.603L100.503 16.81H104.763L107.823 29.44L110.883 16.81H115.323L118.323 29.41L121.383 16.81Z" fill="#FFAF02"/>
<path d="M65.2661 44.4706V46.9118C66.3351 45.1275 68.0698 44.2353 70.4701 44.2353C71.7408 44.2353 72.8704 44.5196 73.8587 45.0882C74.8673 45.6569 75.6438 46.4706 76.1884 47.5294C76.7734 46.5098 77.5701 45.7059 78.5786 45.1176C79.6073 44.5294 80.7571 44.2353 82.0278 44.2353C84.0247 44.2353 85.6283 44.8431 86.8385 46.0588C88.0689 47.2745 88.6841 48.9804 88.6841 51.1765V60.7647H84.4483V51.7647C84.4483 50.4902 84.1155 49.5196 83.4498 48.8529C82.7842 48.1667 81.8765 47.8235 80.7268 47.8235C79.5771 47.8235 78.6593 48.1667 77.9735 48.8529C77.3079 49.5196 76.9751 50.4902 76.9751 51.7647V60.7647H72.7393V51.7647C72.7393 50.4902 72.4065 49.5196 71.7408 48.8529C71.0752 48.1667 70.1675 47.8235 69.0178 47.8235C67.8681 47.8235 66.9503 48.1667 66.2645 48.8529C65.5989 49.5196 65.2661 50.4902 65.2661 51.7647V60.7647H61V44.4706H65.2661Z" fill="#235EE8"/>
<path d="M98.6253 61C96.1846 61 94.1978 60.2353 92.6649 58.7059C91.1319 57.1569 90.3654 55.1176 90.3654 52.5882C90.3654 50.0588 91.1319 48.0392 92.6649 46.5294C94.218 45 96.2149 44.2353 98.6555 44.2353C101.116 44.2353 103.133 44.9804 104.707 46.4706C106.28 47.9412 107.067 49.9118 107.067 52.3824C107.067 52.951 107.026 53.4804 106.946 53.9706H94.7223C94.8231 55.0294 95.2265 55.8824 95.9325 56.5294C96.6385 57.1765 97.5361 57.5 98.6253 57.5C100.098 57.5 101.187 56.9118 101.893 55.7353H106.492C106.008 57.2843 105.07 58.549 103.678 59.5294C102.286 60.5098 100.602 61 98.6253 61ZM102.649 51.2941C102.589 50.2157 102.175 49.3529 101.409 48.7059C100.662 48.0588 99.7548 47.7353 98.6858 47.7353C97.6167 47.7353 96.7192 48.0588 95.993 48.7059C95.287 49.3529 94.8635 50.2157 94.7223 51.2941H102.649Z" fill="#235EE8"/>
<path d="M119.593 56.1471C120.481 55.2843 120.925 54.1078 120.925 52.6176C120.925 51.1275 120.481 49.9608 119.593 49.1176C118.706 48.2549 117.667 47.8235 116.477 47.8235C115.287 47.8235 114.248 48.2451 113.361 49.0882C112.493 49.9314 112.06 51.098 112.06 52.5882C112.06 54.0784 112.503 55.2549 113.391 56.1176C114.278 56.9804 115.307 57.4118 116.477 57.4118C117.667 57.4118 118.706 56.9902 119.593 56.1471ZM109.972 58.6471C108.479 57.0588 107.733 55.0392 107.733 52.5882C107.733 50.1373 108.479 48.1373 109.972 46.5882C111.465 45.0196 113.361 44.2353 115.66 44.2353C117.959 44.2353 119.714 45.1569 120.925 47V39H125.16V60.7647H120.925V58.0294C119.654 60.0098 117.889 61 115.63 61C113.371 61 111.485 60.2157 109.972 58.6471Z" fill="#235EE8"/>
<path d="M127.234 49.2353C127.234 47.8235 127.849 46.6373 129.079 45.6765C130.31 44.7157 131.943 44.2353 133.981 44.2353C136.018 44.2353 137.652 44.7157 138.882 45.6765C140.112 46.6176 140.768 47.902 140.849 49.5294H136.492C136.371 48.1569 135.504 47.4706 133.89 47.4706C133.083 47.4706 132.458 47.6274 132.014 47.9412C131.57 48.2549 131.348 48.6863 131.348 49.2353C131.348 49.7843 131.681 50.2157 132.347 50.5294C133.012 50.8431 133.819 51.0882 134.767 51.2647C135.715 51.4412 136.653 51.6667 137.581 51.9412C138.529 52.1961 139.336 52.6667 140.002 53.3529C140.667 54.0196 141 54.9118 141 56.0294C141 57.5 140.355 58.6961 139.064 59.6176C137.793 60.5392 136.159 61 134.162 61C132.185 61 130.562 60.549 129.291 59.6471C128.02 58.7255 127.324 57.4118 127.203 55.7059H131.56C131.722 57.0784 132.619 57.7647 134.253 57.7647C135.04 57.7647 135.675 57.598 136.159 57.2647C136.643 56.9118 136.885 56.4608 136.885 55.9118C136.885 55.3431 136.552 54.902 135.887 54.5882C135.221 54.2549 134.414 54 133.466 53.8235C132.518 53.6471 131.57 53.4314 130.622 53.1765C129.694 52.9216 128.898 52.4706 128.232 51.8235C127.566 51.1569 127.234 50.2941 127.234 49.2353Z" fill="#235EE8"/>
<path opacity="0.5" d="M50.5858 50.0442C51.3668 49.2632 52.6332 49.2632 53.4142 50.0442V50.0442C54.1953 50.8253 54.1953 52.0916 53.4142 52.8726L44.2218 62.065L41.3934 59.2366L50.5858 50.0442Z" fill="#4FD8DE"/>
<path opacity="0.5" fill-rule="evenodd" clip-rule="evenodd" d="M28 39.4301V46.4301C28 48.0869 29.3431 49.4301 31 49.4301H52C53.1046 49.4301 54 50.3255 54 51.4301C54 52.5346 53.1046 53.4301 52 53.4301H31C27.134 53.4301 24 50.296 24 46.4301V39.4301H28Z" fill="#6665DD"/>
<path fill-rule="evenodd" clip-rule="evenodd" d="M50.5503 52.808C50.538 52.7962 50.5258 52.7843 50.5137 52.7722L41 43.2585L43.8284 40.4301L53.3422 49.9438C53.3546 49.9563 53.367 49.9689 53.3791 49.9816C53.7616 50.3459 54 50.8601 54 51.4301C54 52.5346 53.1045 53.4301 52 53.4301C51.4294 53.4301 50.9147 53.1912 50.5503 52.808Z" fill="#4FD8DE"/>
</svg>
